<?xml version="1.0" standalone="no"?>
<!DOCTYPE svg PUBLIC "-//W3C//DTD SVG 20010904//EN"
 "http://www.w3.org/TR/2001/REC-SVG-20010904/DTD/svg10.dtd">
<svg version="1.0" xmlns="http://www.w3.org/2000/svg"
 width="1024.000000pt" height="1024.000000pt" viewBox="0 0 1024.000000 1024.000000"
 preserveAspectRatio="xMidYMid meet">

<g transform="translate(0.000000,1024.000000) scale(0.100000,-0.100000)"
fill="#000000" stroke="none">
<path d="M0 5120 l0 -5120 5120 0 5120 0 0 5120 0 5120 -5120 0 -5120 0 0
-5120z m6003 3698 c27 -20 41 -120 41 -283 0 -171 -13 -233 -71 -349 -66 -132
-216 -254 -354 -290 l-54 -13 91 -5 c75 -3 98 -8 136 -31 96 -56 179 -178 218
-320 26 -94 24 -127 -10 -144 -36 -18 -241 -17 -313 2 -126 33 -228 111 -280
215 l-26 51 -6 -48 c-24 -171 -104 -297 -227 -357 -72 -35 -130 -38 -161 -8
-20 20 -22 32 -22 115 1 142 59 301 139 376 14 14 26 28 26 31 0 4 -28 10 -63
14 -157 16 -308 81 -399 172 -97 97 -145 223 -155 410 l-6 112 26 17 c22 14
40 16 109 10 235 -20 388 -84 509 -212 55 -57 109 -146 109 -178 0 -8 4 -15 9
-15 5 0 9 43 10 95 3 189 40 284 160 405 112 114 259 190 431 225 85 17 113
18 133 3z m-338 -1744 c27 -18 45 -55 45 -95 0 -104 -128 -155 -203 -81 -101
101 37 255 158 176z m-576 -292 c57 -41 78 -138 45 -209 -54 -113 -239 -112
-294 2 -11 23 -20 56 -20 75 0 44 36 117 67 138 53 34 151 32 202 -6z m759
-609 c-10 -2 -28 -2 -40 0 -13 2 -5 4 17 4 22 1 32 -1 23 -4z m59 1 c-3 -3
-12 -4 -19 -1 -8 3 -5 6 6 6 11 1 17 -2 13 -5z m40 0 c-3 -3 -12 -4 -19 -1 -8
3 -5 6 6 6 11 1 17 -2 13 -5z m70 0 c-3 -3 -12 -4 -19 -1 -8 3 -5 6 6 6 11 1
17 -2 13 -5z m80 0 c-3 -3 -12 -4 -19 -1 -8 3 -5 6 6 6 11 1 17 -2 13 -5z
m220 0 c-3 -3 -12 -4 -19 -1 -8 3 -5 6 6 6 11 1 17 -2 13 -5z m86 -1 c-13 -2
-35 -2 -50 0 -16 2 -5 4 22 4 28 0 40 -2 28 -4z m1058 -43 c25 -37 -21 -313
-81 -491 -68 -203 -198 -437 -337 -609 -85 -105 -270 -282 -383 -367 -107 -79
-240 -162 -347 -217 -40 -20 -77 -45 -83 -56 -6 -11 -15 -53 -19 -93 -5 -40
-15 -87 -24 -103 -22 -43 -80 -91 -124 -103 -53 -15 -1834 -15 -1887 0 -48 13
-122 80 -135 122 -5 18 -12 61 -16 97 -3 35 -11 72 -16 82 -5 10 -46 37 -91
59 -507 255 -891 685 -1058 1185 -67 202 -108 454 -81 494 9 13 186 16 1453
20 794 3 1843 3 2331 0 774 -4 889 -7 898 -20z m-2072 -2670 c39 -11 86 -51
107 -92 36 -68 3 -168 -68 -208 -56 -32 -136 -25 -178 15 -75 72 -81 186 -12
248 19 18 84 46 107 47 6 0 26 -4 44 -10z m1432 -36 c60 -57 75 -123 43 -189
-31 -66 -119 -109 -187 -91 -61 15 -125 123 -113 190 21 110 178 165 257 90z
m-4803 -46 c16 -16 16 -210 0 -226 -9 -9 -86 -12 -285 -12 l-273 0 0 -150 0
-150 243 0 c176 0 246 -3 255 -12 16 -16 16 -200 0 -216 -9 -9 -79 -12 -255
-12 l-243 0 0 -170 0 -170 284 0 c245 0 287 -2 300 -16 20 -19 23 -193 4 -212
-17 -17 -829 -17 -846 0 -17 17 -17 1329 0 1346 17 17 799 17 816 0z m2125 -5
c11 -13 295 -853 340 -1007 2 -6 27 64 56 155 173 540 273 844 283 856 16 19
251 18 267 -1 16 -19 24 7 -191 -596 -102 -283 -202 -564 -223 -625 -21 -60
-43 -116 -48 -122 -7 -9 -48 -13 -143 -13 -128 0 -134 1 -148 23 -18 28 -466
1283 -466 1306 0 35 21 41 140 41 99 0 119 -3 133 -17z m-555 -220 l3 -133
109 0 c138 0 140 -2 140 -114 0 -109 -2 -111 -139 -112 l-106 -1 0 -240 c0
-263 4 -282 57 -304 17 -7 54 -10 94 -6 88 7 94 0 94 -113 0 -120 -7 -125
-175 -125 -103 1 -127 4 -172 24 -29 13 -69 41 -89 63 -67 75 -68 81 -72 407
l-3 295 -49 -3 c-83 -4 -90 5 -90 112 0 59 4 97 12 105 7 7 39 12 73 12 l60 0
-3 107 c-2 77 1 113 10 125 15 19 113 37 193 34 l50 -1 3 -132z m-783 -128
c123 -32 213 -105 263 -213 l27 -57 0 -365 0 -365 -120 0 -120 0 -3 53 -3 54
-44 -41 c-86 -79 -187 -108 -321 -91 -104 13 -165 42 -223 106 -58 64 -77 124
-68 220 10 106 59 175 166 228 64 33 142 52 291 71 208 26 193 20 187 71 -2
24 -12 55 -22 70 -24 37 -89 64 -157 64 -92 0 -141 -28 -179 -102 -11 -23 -27
-38 -37 -38 -10 0 -56 13 -102 28 -76 26 -85 31 -88 56 -7 57 89 170 181 215
104 50 259 65 372 36z m3336 5 c118 -23 238 -102 287 -189 22 -39 22 -41 5
-58 -10 -10 -55 -31 -101 -47 l-82 -28 -53 54 c-38 40 -64 58 -99 67 -62 18
-129 7 -168 -26 -26 -21 -31 -32 -28 -62 4 -51 43 -73 202 -110 150 -36 216
-64 271 -118 57 -55 75 -103 75 -203 0 -68 -5 -95 -24 -136 -28 -61 -90 -116
-165 -146 -50 -21 -73 -23 -211 -23 -148 0 -158 2 -224 29 -114 48 -229 171
-196 210 14 18 154 66 190 66 16 0 34 -12 52 -34 97 -122 348 -111 348 15 0
34 -30 72 -74 93 -20 9 -88 30 -153 47 -141 37 -217 73 -265 127 -45 49 -61
99 -62 182 0 82 17 132 62 182 89 98 247 139 413 108z m1480 0 c191 -35 352
-197 394 -395 39 -188 -8 -359 -134 -486 -106 -107 -213 -149 -376 -149 -160
0 -266 41 -371 145 -101 99 -144 215 -144 384 0 148 47 263 148 365 118 120
299 170 483 136z m1260 -26 c64 -35 128 -111 160 -191 24 -57 24 -63 24 -423
l0 -365 -114 -3 c-75 -2 -118 1 -127 9 -11 9 -14 70 -14 328 0 309 -1 317 -23
356 -30 53 -87 85 -154 85 -65 0 -99 -13 -142 -53 -68 -65 -71 -78 -71 -407 0
-217 -3 -299 -12 -308 -8 -8 -49 -12 -120 -12 -96 0 -108 2 -118 19 -6 13 -10
183 -10 485 0 409 2 466 16 480 12 12 37 16 112 16 53 0 104 -4 112 -10 10 -6
14 -27 15 -68 l0 -60 51 48 c48 45 109 83 164 101 14 5 64 7 111 5 72 -3 95
-8 140 -32z m-3412 2 c8 -9 10 -148 9 -497 l-3 -484 -114 -3 c-75 -2 -118 1
-127 9 -12 9 -14 92 -14 482 0 424 2 472 17 489 14 15 32 18 118 18 74 0 106
-4 114 -14z m1365 -2 c14 -14 16 -72 16 -488 0 -393 -2 -476 -14 -485 -9 -8
-52 -11 -127 -9 l-114 3 -3 484 c-1 349 1 488 9 497 17 21 212 20 233 -2z"/>
<path d="M5645 8413 c-42 -43 -186 -264 -262 -404 l-68 -125 -55 43 c-134 106
-284 204 -309 201 -30 -4 -46 -28 -38 -59 6 -23 158 -137 291 -220 22 -13 44
-27 48 -30 5 -3 -26 -81 -67 -173 -42 -92 -75 -177 -73 -188 4 -26 30 -43 51
-35 9 3 53 81 98 172 44 91 85 165 90 165 5 0 74 -33 154 -72 157 -79 180 -82
180 -22 0 27 -9 33 -147 103 l-148 73 32 62 c18 33 95 154 170 268 76 113 138
216 138 227 0 19 -26 41 -48 41 -5 0 -22 -12 -37 -27z"/>
<path d="M2701 2458 c-149 -21 -201 -41 -231 -91 -23 -37 -25 -61 -9 -106 24
-69 141 -83 248 -30 95 47 138 117 129 210 l-3 35 -134 -18z"/>
<path d="M7399 2793 c-101 -52 -156 -161 -147 -297 12 -188 148 -309 307 -275
102 22 180 114 200 237 18 110 -9 208 -76 282 -75 84 -182 104 -284 53z"/>
</g>
</svg>
